<svg id="visual" viewBox="0 0 960 540" width="960" height="540" xmlns="http://www.w3.org/2000/svg" xmlns:xlink="http://www.w3.org/1999/xlink" version="1.1">
  <path d="M0 396L107 431L213 366L320 402L427 398L533 360L640 361L747 396L853 429L960 409L960 541L853 541L747 541L640 541L533 541L427 541L320 541L213 541L107 541L0 541Z" fill="#22c55e"></path>
  <path d="M0 428L107 406L213 427L320 408L427 450L533 404L640 453L747 406L853 447L960 434L960 541L853 541L747 541L640 541L533 541L427 541L320 541L213 541L107 541L0 541Z" fill="#1eb355"></path>
  <path d="M0 457L107 432L213 449L320 470L427 426L533 434L640 458L747 471L853 442L960 451L960 541L853 541L747 541L640 541L533 541L427 541L320 541L213 541L107 541L0 541Z" fill="#1ba24d"></path>
  <path d="M0 471L107 468L213 476L320 460L427 482L533 480L640 487L747 473L853 485L960 475L960 541L853 541L747 541L640 541L533 541L427 541L320 541L213 541L107 541L0 541Z" fill="#189145"></path>
  <path d="M0 490L107 516L213 493L320 488L427 503L533 515L640 493L747 492L853 488L960 515L960 541L853 541L747 541L640 541L533 541L427 541L320 541L213 541L107 541L0 541Z" fill="#15803d"></path>
</svg>