<svg width="350" height="372" viewBox="0 0 350 372" fill="none" xmlns="http://www.w3.org/2000/svg">
<rect y="72" width="300" height="300" fill="#31803D"/>
<rect x="50" y="22" width="300" height="300" fill="#077D3E"/>
<path d="M305.574 75.3672V80.7871C298.348 81.959 291.902 85.8164 286.238 92.3594C282.137 97.2422 276.033 108.717 267.928 126.783L199.52 278.541H194.686L126.57 120.631C118.367 101.588 112.85 90.4063 110.018 87.0859C107.283 83.7656 102.059 81.666 94.3438 80.7871V75.3672H189.559V80.7871H186.336C177.742 80.7871 171.883 81.8613 168.758 84.0098C166.512 85.4746 165.389 87.623 165.389 90.4551C165.389 92.2129 165.779 94.3125 166.561 96.7539C167.342 99.0977 169.979 105.494 174.471 115.943L216.805 214.82L256.062 126.783C260.75 116.139 263.631 109.01 264.705 105.396C265.779 101.783 266.316 98.707 266.316 96.168C266.316 93.2383 265.535 90.6504 263.973 88.4043C262.41 86.1582 260.115 84.4492 257.088 83.2773C252.889 81.6172 247.322 80.7871 240.389 80.7871V75.3672H305.574Z" fill="black"/>
</svg>