<svg width="832" height="377" viewBox="0 0 832 377" fill="none" xmlns="http://www.w3.org/2000/svg">
<rect y="64" width="300" height="300" fill="#31803D"/>
<rect x="50" y="14" width="300" height="300" fill="#077D3E"/>
<path d="M304.574 75.3672V80.7871C297.348 81.959 290.902 85.8164 285.238 92.3594C281.137 97.2422 275.033 108.717 266.928 126.783L198.52 278.541H193.686L125.57 120.631C117.367 101.588 111.85 90.4063 109.018 87.0859C106.283 83.7656 101.059 81.666 93.3438 80.7871V75.3672H188.559V80.7871H185.336C176.742 80.7871 170.883 81.8613 167.758 84.0098C165.512 85.4746 164.389 87.623 164.389 90.4551C164.389 92.2129 164.779 94.3125 165.561 96.7539C166.342 99.0977 168.979 105.494 173.471 115.943L215.805 214.82L255.062 126.783C259.75 116.139 262.631 109.01 263.705 105.396C264.779 101.783 265.316 98.707 265.316 96.168C265.316 93.2383 264.535 90.6504 262.973 88.4043C261.41 86.1582 259.115 84.4492 256.088 83.2773C251.889 81.6172 246.322 80.7871 239.389 80.7871V75.3672H304.574Z" fill="white"/>
<path d="M429.739 308.729C419.866 308.729 410.847 306.811 402.679 302.976C394.511 299.07 388.013 293.459 383.183 286.143C378.354 278.757 375.939 269.808 375.939 259.297C375.939 251.2 377.466 244.382 380.52 238.842C383.574 233.303 387.906 228.757 393.517 225.206C399.128 221.655 405.768 218.849 413.439 216.79C421.109 214.73 429.561 213.132 438.794 211.996C447.956 210.859 455.697 209.865 462.018 209.013C468.411 208.161 473.276 206.811 476.614 204.964C479.952 203.118 481.621 200.135 481.621 196.016V192.18C481.621 181.03 478.283 172.259 471.607 165.866C465.001 159.403 455.484 156.172 443.055 156.172C431.266 156.172 421.642 158.764 414.185 163.949C406.798 169.134 401.614 175.241 398.631 182.273L380.626 175.774C384.32 166.825 389.433 159.687 395.967 154.361C402.501 148.963 409.817 145.092 417.913 142.749C426.01 140.334 434.213 139.126 442.523 139.126C448.773 139.126 455.271 139.943 462.018 141.577C468.837 143.21 475.158 146.051 480.982 150.099C486.805 154.077 491.528 159.652 495.151 166.825C498.773 173.928 500.584 182.947 500.584 193.885V305H481.621V279.112H480.449C478.176 283.942 474.803 288.629 470.328 293.175C465.854 297.72 460.243 301.449 453.496 304.361C446.749 307.273 438.83 308.729 429.739 308.729ZM432.295 291.364C442.381 291.364 451.116 289.126 458.503 284.652C465.889 280.178 471.571 274.247 475.548 266.861C479.597 259.403 481.621 251.2 481.621 242.251V218.601C480.2 219.95 477.821 221.158 474.483 222.223C471.216 223.288 467.416 224.247 463.084 225.099C458.822 225.881 454.561 226.555 450.3 227.124C446.038 227.692 442.203 228.189 438.794 228.615C429.561 229.751 421.678 231.527 415.143 233.942C408.609 236.357 403.602 239.695 400.122 243.956C396.642 248.146 394.902 253.544 394.902 260.149C394.902 270.092 398.453 277.798 405.555 283.267C412.658 288.665 421.571 291.364 432.295 291.364ZM569.991 86.8182V305H551.028V86.8182H569.991ZM665.871 308.729C655.999 308.729 646.979 306.811 638.812 302.976C630.644 299.07 624.146 293.459 619.316 286.143C614.487 278.757 612.072 269.808 612.072 259.297C612.072 251.2 613.599 244.382 616.653 238.842C619.707 233.303 624.039 228.757 629.65 225.206C635.261 221.655 641.901 218.849 649.572 216.79C657.242 214.73 665.694 213.132 674.927 211.996C684.089 210.859 691.83 209.865 698.151 209.013C704.543 208.161 709.408 206.811 712.746 204.964C716.085 203.118 717.754 200.135 717.754 196.016V192.18C717.754 181.03 714.415 172.259 707.739 165.866C701.134 159.403 691.617 156.172 679.188 156.172C667.398 156.172 657.775 158.764 650.317 163.949C642.931 169.134 637.746 175.241 634.763 182.273L616.759 175.774C620.452 166.825 625.566 159.687 632.1 154.361C638.634 148.963 645.95 145.092 654.046 142.749C662.143 140.334 670.346 139.126 678.656 139.126C684.906 139.126 691.404 139.943 698.151 141.577C704.969 143.21 711.29 146.051 717.114 150.099C722.938 154.077 727.661 159.652 731.283 166.825C734.906 173.928 736.717 182.947 736.717 193.885V305H717.754V279.112H716.582C714.309 283.942 710.935 288.629 706.461 293.175C701.987 297.72 696.376 301.449 689.629 304.361C682.881 307.273 674.962 308.729 665.871 308.729ZM668.428 291.364C678.513 291.364 687.249 289.126 694.636 284.652C702.022 280.178 707.704 274.247 711.681 266.861C715.729 259.403 717.754 251.2 717.754 242.251V218.601C716.333 219.95 713.954 221.158 710.616 222.223C707.349 223.288 703.549 224.247 699.217 225.099C694.955 225.881 690.694 226.555 686.433 227.124C682.171 227.692 678.336 228.189 674.927 228.615C665.694 229.751 657.81 231.527 651.276 233.942C644.742 236.357 639.735 239.695 636.255 243.956C632.775 248.146 631.035 253.544 631.035 260.149C631.035 270.092 634.586 277.798 641.688 283.267C648.79 288.665 657.704 291.364 668.428 291.364ZM806.124 86.8182V305H787.161V86.8182H806.124Z" fill="white"/>
</svg>